<svg id="Layer_1" data-name="Layer 1" xmlns="http://www.w3.org/2000/svg" viewBox="0 0 509.96 486.42"><path d="m264 20.48 66 145.07a7.36 7.36 0 0 0 5.86 4.24l154.6 15.51a7.23 7.23 0 0 1 4.14 12.53l-120.14 111a7.43 7.43 0 0 0-2.16 6.94l35 147a7.2 7.2 0 0 1-10.73 7.84l-135.33-81.44a7.34 7.34 0 0 0-7.49 0l-135.33 81.41a7.19 7.19 0 0 1-10.73-7.84l35-147a6.94 6.94 0 0 0-2.16-6.94L20.32 197.74a7.26 7.26 0 0 1 4.14-12.53L179 169.7a7.4 7.4 0 0 0 5.86-4.23l66-145.09a7.24 7.24 0 0 1 13.16.1Z" transform="translate(-2.5 -.71)" style="fill:none;stroke:#5f9c49;stroke-miterlimit:10;stroke-width:31px"/></svg>