<svg xmlns="http://www.w3.org/2000/svg" viewBox="0 0 32 32" style="enable-background:new 0 0 32 32" xml:space="preserve"><style>.st0{opacity:.15;fill:#fff}.st1{fill:#fff}.st2{fill:#ffb636}.st3{fill:#e0e78e}.st6{fill:#f8ffbf}.st7{fill:#777b00}.st8{fill:#f28100}</style><g id="Art"><path d="M31.5 23.43c0 4.46-3.62 8.07-8.07 8.07-3.33 0-6.2-2.02-7.43-4.9a8.072 8.072 0 0 1-7.43 4.9C4.11 31.5.5 27.89.5 23.43c0-3.33 2.02-6.2 4.9-7.43A8.072 8.072 0 0 1 .5 8.57C.5 4.11 4.11.5 8.57.5c3.33 0 6.2 2.02 7.43 4.91A8.081 8.081 0 0 1 23.43.5 8.072 8.072 0 0 1 26.59 16a8.065 8.065 0 0 1 4.91 7.43z"/><circle class="st1" cx="23.47" cy="23.47" r="6.14"/><circle cx="23.47" cy="8.53" r="6.14" style="fill:#e2d942"/><path d="M26.56 7.64h-2.2v-2.2h-1.79v2.2h-2.19v1.79h2.19v2.19h1.79V9.43h2.2z"/><circle class="st1" cx="8.53" cy="8.53" r="6.14"/><path d="M5.41 7.61h6.25v1.85H5.41z"/><circle cx="8.53" cy="5.85" r=".94"/><circle cx="8.53" cy="11.21" r=".94"/><path d="m26.59 21.73-1.23-1.3-1.86 1.78-1.77-1.87-1.29 1.23 1.77 1.86-1.87 1.78 1.23 1.29 1.86-1.77 1.77 1.86 1.3-1.23-1.77-1.86z"/><circle cx="8.53" cy="23.47" r="6.14" style="fill:#859e1e"/><path d="M5.41 22.54h6.25v1.85H5.41z"/></g></svg>