<svg xmlns="http://www.w3.org/2000/svg" viewBox="0 0 240.3 240.3" style="enable-background:new 0 0 240.3 240.3" xml:space="preserve"><style>.st0{opacity:.15;fill:#fff}.st1{fill:#fff}.st2{fill:#ffb636}.st3{fill:#e0e78e}.st6{fill:#f8ffbf}.st7{fill:#777b00}.st8{fill:#f28100}</style><g id="Art"><g id="Digits_00000039123477629252667460000000733987605081278904_"><path d="M240.15 177.65c0 34.52-27.99 62.5-62.5 62.5-25.81 0-47.98-15.64-57.5-37.96-9.54 22.32-31.69 37.96-57.5 37.96-34.52 0-62.5-27.98-62.5-62.5 0-25.81 15.64-47.96 37.96-57.5C15.79 110.63.15 88.46.15 62.65.15 28.14 28.13.15 62.65.15c25.81 0 47.96 15.65 57.5 37.98C129.67 15.81 151.84.15 177.65.15c34.51 0 62.5 27.99 62.5 62.5 0 25.81-15.65 47.98-37.98 57.5 22.33 9.54 37.98 31.69 37.98 57.5z"/><circle class="st1" cx="177.96" cy="177.96" r="50"/><circle cx="177.96" cy="62.34" r="50" style="fill:#e2d942"/><path d="M199.7 56.03h-15.44V40.6h-12.62v15.43H156.2v12.62h15.44V84.1h12.62V68.65h15.44z"/><circle class="st1" cx="62.34" cy="62.34" r="50"/><path d="M40.35 55.84h43.99v13H40.35z"/><circle cx="62.34" cy="43.49" r="6.6"/><circle cx="62.34" cy="81.19" r="6.6"/><path d="m199.96 165.71-8.65-9.1-13.12 12.47-12.47-13.12-9.1 8.65 12.46 13.12-13.12 12.47 8.64 9.11 13.13-12.47 12.46 13.12 9.1-8.65-12.46-13.12z"/><circle cx="62.34" cy="177.96" r="50" style="fill:#859e1e"/><path d="M40.35 171.46h43.99v13H40.35z"/></g></g></svg>